<?xml version="1.0" encoding="UTF-8"?>
<svg id="_图层_1" data-name=" 图层 1" xmlns="http://www.w3.org/2000/svg" viewBox="0 0 673.25 591.08">
  <defs>
    <style>
      .cls-1 {
        fill: none;
        stroke: #000;
        stroke-miterlimit: 10;
      }
    </style>
  </defs>
  <polygon class="cls-1" points="60.51 172.49 83.36 438.13 237.46 438.13 253.18 147.98 60.51 172.49"/>
  <polygon class="cls-1" points="132.05 254.22 193.01 214.37 193.01 331.61 156.85 344.34 132.05 254.22"/>
  <polygon class="cls-1" points="437.09 77.98 282.45 256.78 310.75 293.05 437.09 156.19 575.02 302.1 613.48 138.29 437.09 77.98"/>
  <path class="cls-1" d="M407.2,262.13l104.08-9.76-6.85,93.25c-16.29-12.53-114.07,9.46-130.36-3.07-16.11-12.4,49.25-68.02,33.14-80.41h-.01Z"/>
  <polygon class="cls-1" points="378.34 387.05 546.92 387.05 546.92 523.82 310.75 542.86 378.34 387.05"/>
  <polygon class="cls-1" points="436.71 425.42 487.16 425.42 487.16 479.24 395.6 479.24 436.71 425.42"/>
</svg>